<svg width="402" height="140" viewBox="0 0 402 140" fill="none" xmlns="http://www.w3.org/2000/svg">
<g filter="url(#filter0_df_2_6)">
<circle cx="68" cy="68" r="64" fill="#F7F8FC"/>
</g>
<path d="M83.5 88.1875C83.5 86.5625 83.25 85.1042 82.75 83.8125C82.2917 82.4792 81.4167 81.2708 80.125 80.1875C78.8333 79.0625 77.0208 77.9583 74.6875 76.875C72.3542 75.7917 69.3333 74.6667 65.625 73.5C61.5 72.1667 57.5833 70.6667 53.875 69C50.2083 67.3333 46.9583 65.3958 44.125 63.1875C41.3333 60.9375 39.125 58.3333 37.5 55.375C35.9167 52.4167 35.125 48.9792 35.125 45.0625C35.125 41.2708 35.9583 37.8333 37.625 34.75C39.2917 31.625 41.625 28.9583 44.625 26.75C47.625 24.5 51.1667 22.7708 55.25 21.5625C59.375 20.3542 63.8958 19.75 68.8125 19.75C75.5208 19.75 81.375 20.9583 86.375 23.375C91.375 25.7917 95.25 29.1042 98 33.3125C100.792 37.5208 102.188 42.3333 102.188 47.75H83.5625C83.5625 45.0833 83 42.75 81.875 40.75C80.7917 38.7083 79.125 37.1042 76.875 35.9375C74.6667 34.7708 71.875 34.1875 68.5 34.1875C65.25 34.1875 62.5417 34.6875 60.375 35.6875C58.2083 36.6458 56.5833 37.9583 55.5 39.625C54.4167 41.25 53.875 43.0833 53.875 45.125C53.875 46.6667 54.25 48.0625 55 49.3125C55.7917 50.5625 56.9583 51.7292 58.5 52.8125C60.0417 53.8958 61.9375 54.9167 64.1875 55.875C66.4375 56.8333 69.0417 57.7708 72 58.6875C76.9583 60.1875 81.3125 61.875 85.0625 63.75C88.8542 65.625 92.0208 67.7292 94.5625 70.0625C97.1042 72.3958 99.0208 75.0417 100.312 78C101.604 80.9583 102.25 84.3125 102.25 88.0625C102.25 92.0208 101.479 95.5625 99.9375 98.6875C98.3958 101.812 96.1667 104.458 93.25 106.625C90.3333 108.792 86.8542 110.438 82.8125 111.562C78.7708 112.688 74.25 113.25 69.25 113.25C64.75 113.25 60.3125 112.667 55.9375 111.5C51.5625 110.292 47.5833 108.479 44 106.062C40.4583 103.646 37.625 100.562 35.5 96.8125C33.375 93.0625 32.3125 88.625 32.3125 83.5H51.125C51.125 86.3333 51.5625 88.7292 52.4375 90.6875C53.3125 92.6458 54.5417 94.2292 56.125 95.4375C57.75 96.6458 59.6667 97.5208 61.875 98.0625C64.125 98.6042 66.5833 98.875 69.25 98.875C72.5 98.875 75.1667 98.4167 77.25 97.5C79.375 96.5833 80.9375 95.3125 81.9375 93.6875C82.9792 92.0625 83.5 90.2292 83.5 88.1875Z" fill="#0D2438"/>
<path d="M166.75 78.0938C166.75 77.2812 166.625 76.5521 166.375 75.9062C166.146 75.2396 165.708 74.6354 165.062 74.0938C164.417 73.5312 163.51 72.9792 162.344 72.4375C161.177 71.8958 159.667 71.3333 157.812 70.75C155.75 70.0833 153.792 69.3333 151.938 68.5C150.104 67.6667 148.479 66.6979 147.062 65.5938C145.667 64.4688 144.562 63.1667 143.75 61.6875C142.958 60.2083 142.562 58.4896 142.562 56.5312C142.562 54.6354 142.979 52.9167 143.812 51.375C144.646 49.8125 145.812 48.4792 147.312 47.375C148.812 46.25 150.583 45.3854 152.625 44.7812C154.688 44.1771 156.948 43.875 159.406 43.875C162.76 43.875 165.688 44.4792 168.188 45.6875C170.688 46.8958 172.625 48.5521 174 50.6562C175.396 52.7604 176.094 55.1667 176.094 57.875H166.781C166.781 56.5417 166.5 55.375 165.938 54.375C165.396 53.3542 164.562 52.5521 163.438 51.9688C162.333 51.3854 160.938 51.0938 159.25 51.0938C157.625 51.0938 156.271 51.3438 155.188 51.8438C154.104 52.3229 153.292 52.9792 152.75 53.8125C152.208 54.625 151.938 55.5417 151.938 56.5625C151.938 57.3333 152.125 58.0312 152.5 58.6562C152.896 59.2812 153.479 59.8646 154.25 60.4062C155.021 60.9479 155.969 61.4583 157.094 61.9375C158.219 62.4167 159.521 62.8854 161 63.3438C163.479 64.0938 165.656 64.9375 167.531 65.875C169.427 66.8125 171.01 67.8646 172.281 69.0312C173.552 70.1979 174.51 71.5208 175.156 73C175.802 74.4792 176.125 76.1562 176.125 78.0312C176.125 80.0104 175.74 81.7812 174.969 83.3438C174.198 84.9062 173.083 86.2292 171.625 87.3125C170.167 88.3958 168.427 89.2188 166.406 89.7812C164.385 90.3438 162.125 90.625 159.625 90.625C157.375 90.625 155.156 90.3333 152.969 89.75C150.781 89.1458 148.792 88.2396 147 87.0312C145.229 85.8229 143.812 84.2812 142.75 82.4062C141.688 80.5312 141.156 78.3125 141.156 75.75H150.562C150.562 77.1667 150.781 78.3646 151.219 79.3438C151.656 80.3229 152.271 81.1146 153.062 81.7188C153.875 82.3229 154.833 82.7604 155.938 83.0312C157.062 83.3021 158.292 83.4375 159.625 83.4375C161.25 83.4375 162.583 83.2083 163.625 82.75C164.688 82.2917 165.469 81.6562 165.969 80.8438C166.49 80.0312 166.75 79.1146 166.75 78.0938ZM195.906 83.5938C197.01 83.5938 197.99 83.3854 198.844 82.9688C199.698 82.5312 200.365 81.9271 200.844 81.1562C201.344 80.3646 201.604 79.4375 201.625 78.375H210.094C210.073 80.75 209.438 82.8646 208.188 84.7188C206.938 86.5521 205.26 88 203.156 89.0625C201.052 90.1042 198.698 90.625 196.094 90.625C193.469 90.625 191.177 90.1875 189.219 89.3125C187.281 88.4375 185.667 87.2292 184.375 85.6875C183.083 84.125 182.115 82.3125 181.469 80.25C180.823 78.1667 180.5 75.9375 180.5 73.5625V72.6562C180.5 70.2604 180.823 68.0312 181.469 65.9688C182.115 63.8854 183.083 62.0729 184.375 60.5312C185.667 58.9688 187.281 57.75 189.219 56.875C191.156 56 193.427 55.5625 196.031 55.5625C198.802 55.5625 201.229 56.0938 203.312 57.1562C205.417 58.2188 207.062 59.7396 208.25 61.7188C209.458 63.6771 210.073 66 210.094 68.6875H201.625C201.604 67.5625 201.365 66.5417 200.906 65.625C200.469 64.7083 199.823 63.9792 198.969 63.4375C198.135 62.875 197.104 62.5938 195.875 62.5938C194.562 62.5938 193.49 62.875 192.656 63.4375C191.823 63.9792 191.177 64.7292 190.719 65.6875C190.26 66.625 189.938 67.6979 189.75 68.9062C189.583 70.0938 189.5 71.3438 189.5 72.6562V73.5625C189.5 74.875 189.583 76.1354 189.75 77.3438C189.917 78.5521 190.229 79.625 190.688 80.5625C191.167 81.5 191.823 82.2396 192.656 82.7812C193.49 83.3229 194.573 83.5938 195.906 83.5938ZM224.094 42V90H215.094V42H224.094ZM222.812 71.9062H220.344C220.365 69.5521 220.677 67.3854 221.281 65.4062C221.885 63.4062 222.75 61.6771 223.875 60.2188C225 58.7396 226.344 57.5938 227.906 56.7812C229.49 55.9688 231.24 55.5625 233.156 55.5625C234.823 55.5625 236.333 55.8021 237.688 56.2812C239.062 56.7396 240.24 57.4896 241.219 58.5312C242.219 59.5521 242.99 60.8958 243.531 62.5625C244.073 64.2292 244.344 66.25 244.344 68.625V90H235.281V68.5625C235.281 67.0625 235.062 65.8854 234.625 65.0312C234.208 64.1562 233.594 63.5417 232.781 63.1875C231.99 62.8125 231.01 62.625 229.844 62.625C228.552 62.625 227.448 62.8646 226.531 63.3438C225.635 63.8229 224.917 64.4896 224.375 65.3438C223.833 66.1771 223.438 67.1562 223.188 68.2812C222.938 69.4062 222.812 70.6146 222.812 71.9062ZM260.688 56.1875V90H251.656V56.1875H260.688ZM251.094 47.375C251.094 46.0625 251.552 44.9792 252.469 44.125C253.385 43.2708 254.615 42.8438 256.156 42.8438C257.677 42.8438 258.896 43.2708 259.812 44.125C260.75 44.9792 261.219 46.0625 261.219 47.375C261.219 48.6875 260.75 49.7708 259.812 50.625C258.896 51.4792 257.677 51.9062 256.156 51.9062C254.615 51.9062 253.385 51.4792 252.469 50.625C251.552 49.7708 251.094 48.6875 251.094 47.375ZM277.625 42V90H268.594V42H277.625ZM294.562 42V90H285.531V42H294.562ZM311 63.5625V90H302V56.1875H310.469L311 63.5625ZM321.188 55.9688L321.031 64.3125C320.594 64.25 320.062 64.1979 319.438 64.1562C318.833 64.0938 318.281 64.0625 317.781 64.0625C316.51 64.0625 315.406 64.2292 314.469 64.5625C313.552 64.875 312.781 65.3438 312.156 65.9688C311.552 66.5938 311.094 67.3542 310.781 68.25C310.49 69.1458 310.323 70.1667 310.281 71.3125L308.469 70.75C308.469 68.5625 308.688 66.5521 309.125 64.7188C309.562 62.8646 310.198 61.25 311.031 59.875C311.885 58.5 312.927 57.4375 314.156 56.6875C315.385 55.9375 316.792 55.5625 318.375 55.5625C318.875 55.5625 319.385 55.6042 319.906 55.6875C320.427 55.75 320.854 55.8438 321.188 55.9688ZM340.375 90.625C337.75 90.625 335.396 90.2083 333.312 89.375C331.229 88.5208 329.458 87.3438 328 85.8438C326.562 84.3438 325.458 82.6042 324.688 80.625C323.917 78.625 323.531 76.5 323.531 74.25V73C323.531 70.4375 323.896 68.0938 324.625 65.9688C325.354 63.8438 326.396 62 327.75 60.4375C329.125 58.875 330.792 57.6771 332.75 56.8438C334.708 55.9896 336.917 55.5625 339.375 55.5625C341.771 55.5625 343.896 55.9583 345.75 56.75C347.604 57.5417 349.156 58.6667 350.406 60.125C351.677 61.5833 352.635 63.3333 353.281 65.375C353.927 67.3958 354.25 69.6458 354.25 72.125V75.875H327.375V69.875H345.406V69.1875C345.406 67.9375 345.177 66.8229 344.719 65.8438C344.281 64.8438 343.615 64.0521 342.719 63.4688C341.823 62.8854 340.677 62.5938 339.281 62.5938C338.094 62.5938 337.073 62.8542 336.219 63.375C335.365 63.8958 334.667 64.625 334.125 65.5625C333.604 66.5 333.208 67.6042 332.938 68.875C332.688 70.125 332.562 71.5 332.562 73V74.25C332.562 75.6042 332.75 76.8542 333.125 78C333.521 79.1458 334.073 80.1354 334.781 80.9688C335.51 81.8021 336.385 82.4479 337.406 82.9062C338.448 83.3646 339.625 83.5938 340.938 83.5938C342.562 83.5938 344.073 83.2812 345.469 82.6562C346.885 82.0104 348.104 81.0417 349.125 79.75L353.5 84.5C352.792 85.5208 351.823 86.5 350.594 87.4375C349.385 88.375 347.927 89.1458 346.219 89.75C344.51 90.3333 342.562 90.625 340.375 90.625ZM370.844 90H361.781V53.1875C361.781 50.625 362.281 48.4688 363.281 46.7188C364.302 44.9479 365.729 43.6146 367.562 42.7188C369.417 41.8021 371.615 41.3438 374.156 41.3438C374.99 41.3438 375.792 41.4062 376.562 41.5312C377.333 41.6354 378.083 41.7708 378.812 41.9375L378.719 48.7188C378.323 48.6146 377.906 48.5417 377.469 48.5C377.031 48.4583 376.521 48.4375 375.938 48.4375C374.854 48.4375 373.927 48.625 373.156 49C372.406 49.3542 371.833 49.8854 371.438 50.5938C371.042 51.3021 370.844 52.1667 370.844 53.1875V90ZM377.594 56.1875V62.5625H356.75V56.1875H377.594ZM393.781 90H384.719V53.1875C384.719 50.625 385.219 48.4688 386.219 46.7188C387.24 44.9479 388.667 43.6146 390.5 42.7188C392.354 41.8021 394.552 41.3438 397.094 41.3438C397.927 41.3438 398.729 41.4062 399.5 41.5312C400.271 41.6354 401.021 41.7708 401.75 41.9375L401.656 48.7188C401.26 48.6146 400.844 48.5417 400.406 48.5C399.969 48.4583 399.458 48.4375 398.875 48.4375C397.792 48.4375 396.865 48.625 396.094 49C395.344 49.3542 394.771 49.8854 394.375 50.5938C393.979 51.3021 393.781 52.1667 393.781 53.1875V90ZM400.531 56.1875V62.5625H379.688V56.1875H400.531Z" fill="#F7F8FC"/>
<defs>
<filter id="filter0_df_2_6" x="0" y="0" width="136" height="140" filterUnits="userSpaceOnUse" color-interpolation-filters="sRGB">
<feFlood flood-opacity="0" result="BackgroundImageFix"/>
<feColorMatrix in="SourceAlpha" type="matrix" values="0 0 0 0 0 0 0 0 0 0 0 0 0 0 0 0 0 0 127 0" result="hardAlpha"/>
<feOffset dy="4"/>
<feGaussianBlur stdDeviation="2"/>
<feComposite in2="hardAlpha" operator="out"/>
<feColorMatrix type="matrix" values="0 0 0 0 0 0 0 0 0 0 0 0 0 0 0 0 0 0 0.25 0"/>
<feBlend mode="normal" in2="BackgroundImageFix" result="effect1_dropShadow_2_6"/>
<feBlend mode="normal" in="SourceGraphic" in2="effect1_dropShadow_2_6" result="shape"/>
<feGaussianBlur stdDeviation="2" result="effect2_foregroundBlur_2_6"/>
</filter>
</defs>
</svg>
